0
SECTION
2
HEADER
9
$INSUNITS
70
4
9
$ACADVER
1
AC1014
9
$HANDSEED
5
FFFF
0
ENDSEC
0
SECTION
2
TABLES
0
TABLE
2
VPORT
5
8
100
AcDbSymbolTable
0
ENDTAB
0
TABLE
2
LTYPE
5
5
100
AcDbSymbolTable
0
LTYPE
5
14
100
AcDbSymbolTableRecord
100
AcDbLinetypeTableRecord
2
BYBLOCK
70
0
0
LTYPE
5
15
100
AcDbSymbolTableRecord
100
AcDbLinetypeTableRecord
2
BYLAYER
70
0
0
ENDTAB
0
TABLE
2
LAYER
5
2
100
AcDbSymbolTable
70
2
0
LAYER
5
50
100
AcDbSymbolTableRecord
100
AcDbLayerTableRecord
2
0
70
0
6
CONTINUOUS
0
ENDTAB
0
TABLE
2
STYLE
5
3
100
AcDbSymbolTable
70
1
0
STYLE
5
11
100
AcDbSymbolTableRecord
100
AcDbTextStyleTableRecord
2
STANDARD
70
0
0
ENDTAB
0
TABLE
2
VIEW
5
6
100
AcDbSymbolTable
70
0
0
ENDTAB
0
TABLE
2
UCS
5
7
100
AcDbSymbolTable
70
0
0
ENDTAB
0
TABLE
2
APPID
5
9
100
AcDbSymbolTable
70
2
0
APPID
5
12
100
AcDbSymbolTableRecord
100
AcDbRegAppTableRecord
2
ACAD
70
0
0
ENDTAB
0
TABLE
2
DIMSTYLE
5
A
100
AcDbSymbolTable
70
1
0
ENDTAB
0
TABLE
2
BLOCK_RECORD
5
1
100
AcDbSymbolTable
70
1
0
BLOCK_RECORD
5
1F
100
AcDbSymbolTableRecord
100
AcDbBlockTableRecord
2
*MODEL_SPACE
0
BLOCK_RECORD
5
1B
100
AcDbSymbolTableRecord
100
AcDbBlockTableRecord
2
*PAPER_SPACE
0
ENDTAB
0
ENDSEC
0
SECTION
2
BLOCKS
0
BLOCK
5
20
100
AcDbEntity
100
AcDbBlockBegin
2
*MODEL_SPACE
0
ENDBLK
5
21
100
AcDbEntity
100
AcDbBlockEnd
0
BLOCK
5
1C
100
AcDbEntity
100
AcDbBlockBegin
2
*PAPER_SPACE
0
ENDBLK
5
1D
100
AcDbEntity
100
AcDbBlockEnd
0
ENDSEC
0
SECTION
2
ENTITIES
0
LWPOLYLINE
5
100
100
AcDbEntity
8
0
100
AcDbPolyline
90
26
70
1
43
0.0
10
47.121475197315839
20
-22.601229331096533
42
-0.22258488188780348
10
50.000000000000007
20
-28.746999567875537
10
50
20
-43.999999999999993
10
35
20
-43.999999999999993
10
35
20
-50
10
20
20
-50
10
20
20
-44.00000000000005
10
0
20
-44.00000000000005
10
0
20
-25.000000000000028
10
-6.0000000000000071
20
-25.000000000000028
10
-6.0000000000000053
20
-44.00000000000005
10
-26.00000000000005
20
-44.00000000000005
10
-26.00000000000005
20
-50
10
-41.000000000000085
20
-50
10
-41.000000000000085
20
-44.00000000000005
10
-56.000000000000014
20
-44.00000000000005
10
-56.000000000000021
20
-28.746999567875548
42
-0.22258488188780512
10
-53.121475197315874
20
-22.601229331096544
10
-28.225075715865202
20
-1.8542297632209976
42
-0.17545237876417438
10
-23.103600518549364
20
0
10
-6.0000000000000071
20
0
10
-6.0000000000000071
20
-10.000000000000027
10
0
20
-10.000000000000027
10
0
20
0
10
17.103600518549356
20
-4.9960036108132044e-15
42
-0.17545237876417324
10
22.225075715865195
20
-1.8542297632209959
0
LWPOLYLINE
5
101
100
AcDbEntity
8
0
100
AcDbPolyline
90
26
70
1
43
0.0
10
47.121475197315839
20
-22.60122933109653
42
-0.22258488188780512
10
50
20
-28.746999567875537
10
50
20
-43.999999999999993
10
35
20
-43.999999999999993
10
35
20
-50
10
20
20
-50
10
20
20
-44.00000000000005
10
0
20
-44.00000000000005
10
0
20
-25.000000000000028
10
-6.0000000000000071
20
-25.000000000000028
10
-6.0000000000000053
20
-44.00000000000005
10
-26.00000000000005
20
-44.00000000000005
10
-26.00000000000005
20
-50
10
-41.000000000000085
20
-50
10
-41.000000000000085
20
-44.00000000000005
10
-56.000000000000014
20
-44.00000000000005
10
-56.000000000000021
20
-28.746999567875548
42
-0.2225848818878044
10
-53.121475197315874
20
-22.601229331096548
10
-28.225075715865206
20
-1.8542297632209948
42
-0.1754523787641738
10
-23.103600518549364
20
1.1102230246251565e-15
10
-6.0000000000000071
20
0
10
-6.0000000000000071
20
-10.000000000000027
10
0
20
-10.000000000000027
10
0
20
0
10
17.103600518549356
20
0
42
-0.17545237876417391
10
22.225075715865202
20
-1.8542297632209959
0
ENDSEC
0
SECTION
2
OBJECTS
0
DICTIONARY
5
C
100
AcDbDictionary
3
ACAD_GROUP
350
D
3
ACAD_MLINESTYLE
350
17
0
DICTIONARY
5
D
100
AcDbDictionary
0
DICTIONARY
5
1A
330
C
100
AcDbDictionary
0
DICTIONARY
5
17
100
AcDbDictionary
0
ENDSEC
0
EOF
