0
SECTION
2
HEADER
9
$INSUNITS
70
4
9
$ACADVER
1
AC1014
9
$HANDSEED
5
FFFF
0
ENDSEC
0
SECTION
2
TABLES
0
TABLE
2
VPORT
5
8
100
AcDbSymbolTable
0
ENDTAB
0
TABLE
2
LTYPE
5
5
100
AcDbSymbolTable
0
LTYPE
5
14
100
AcDbSymbolTableRecord
100
AcDbLinetypeTableRecord
2
BYBLOCK
70
0
0
LTYPE
5
15
100
AcDbSymbolTableRecord
100
AcDbLinetypeTableRecord
2
BYLAYER
70
0
0
ENDTAB
0
TABLE
2
LAYER
5
2
100
AcDbSymbolTable
70
2
0
LAYER
5
50
100
AcDbSymbolTableRecord
100
AcDbLayerTableRecord
2
0
70
0
6
CONTINUOUS
0
ENDTAB
0
TABLE
2
STYLE
5
3
100
AcDbSymbolTable
70
1
0
STYLE
5
11
100
AcDbSymbolTableRecord
100
AcDbTextStyleTableRecord
2
STANDARD
70
0
0
ENDTAB
0
TABLE
2
VIEW
5
6
100
AcDbSymbolTable
70
0
0
ENDTAB
0
TABLE
2
UCS
5
7
100
AcDbSymbolTable
70
0
0
ENDTAB
0
TABLE
2
APPID
5
9
100
AcDbSymbolTable
70
2
0
APPID
5
12
100
AcDbSymbolTableRecord
100
AcDbRegAppTableRecord
2
ACAD
70
0
0
ENDTAB
0
TABLE
2
DIMSTYLE
5
A
100
AcDbSymbolTable
70
1
0
ENDTAB
0
TABLE
2
BLOCK_RECORD
5
1
100
AcDbSymbolTable
70
1
0
BLOCK_RECORD
5
1F
100
AcDbSymbolTableRecord
100
AcDbBlockTableRecord
2
*MODEL_SPACE
0
BLOCK_RECORD
5
1B
100
AcDbSymbolTableRecord
100
AcDbBlockTableRecord
2
*PAPER_SPACE
0
ENDTAB
0
ENDSEC
0
SECTION
2
BLOCKS
0
BLOCK
5
20
100
AcDbEntity
100
AcDbBlockBegin
2
*MODEL_SPACE
0
ENDBLK
5
21
100
AcDbEntity
100
AcDbBlockEnd
0
BLOCK
5
1C
100
AcDbEntity
100
AcDbBlockBegin
2
*PAPER_SPACE
0
ENDBLK
5
1D
100
AcDbEntity
100
AcDbBlockEnd
0
ENDSEC
0
SECTION
2
ENTITIES
0
CIRCLE
5
100
100
AcDbEntity
8
0
100
AcDbCircle
10
-107.5
20
65.000000968575478
30
0
40
2.5
0
LWPOLYLINE
5
101
100
AcDbEntity
8
0
100
AcDbPolyline
90
17
70
1
43
0.0
10
-76
20
25.000000372529037
10
-6.0000000000000062
20
25.00000037252903
42
-0.41421356237309542
10
1.1102230246251565e-15
20
19.00000037252903
10
0
20
0
10
-15
20
0
10
-15
20
6.0000000000000009
10
-85
20
6.0000000000000009
10
-85
20
0
10
-100
20
0
10
-100
20
5.000000074505806
10
-105
20
5.0000000745058104
42
-0.41421356237309587
10
-125
20
25.000000074505799
10
-125
20
66.000000000000028
42
-0.41421356237309559
10
-111.00000000000006
20
80
10
-103.99999999999999
20
80.000000000000028
42
-0.41421356237309503
10
-90
20
66
10
-90
20
39.000000372529023
42
0.41421356237309542
0
CIRCLE
5
102
100
AcDbEntity
8
0
100
AcDbCircle
10
-107.5
20
65.000000968575478
30
0
40
2.5
0
LWPOLYLINE
5
103
100
AcDbEntity
8
0
100
AcDbPolyline
90
17
70
1
43
0.0
10
-6.0000000000000142
20
25.00000037252903
10
-76
20
25.000000372529037
42
-0.41421356237309503
10
-90
20
39.000000372529023
10
-90
20
66
42
0.41421356237309503
10
-103.99999999999999
20
80.000000000000014
10
-111.00000000000007
20
80
42
0.4142135623730952
10
-125
20
66.000000000000028
10
-125
20
25.000000074505799
42
0.41421356237309587
10
-105
20
5.000000074505806
10
-100
20
5.000000074505806
10
-100
20
0
10
-85
20
0
10
-85
20
5.9999999999999964
10
-15
20
5.9999999999999964
10
-15
20
0
10
0
20
0
10
1.1102230246251565e-15
20
19.00000037252903
42
0.41421356237309587
0
ENDSEC
0
SECTION
2
OBJECTS
0
DICTIONARY
5
C
100
AcDbDictionary
3
ACAD_GROUP
350
D
3
ACAD_MLINESTYLE
350
17
0
DICTIONARY
5
D
100
AcDbDictionary
0
DICTIONARY
5
1A
330
C
100
AcDbDictionary
0
DICTIONARY
5
17
100
AcDbDictionary
0
ENDSEC
0
EOF
